<svg viewBox="0 0 44 44" xmlns="http://www.w3.org/2000/svg"><path d="M38.8238916 20.7061928h-5.1761084c-.7141887 0-1.2938073.5796186-1.2938073 1.2946867 0 .7133091.5796186 1.2929277 1.2938073 1.2929277h5.1761084c.7141886 0 1.2946867-.5796186 1.2946867-1.2929277 0-.7150681-.5804981-1.2946867-1.2946867-1.2946867zM23.2946868 33.6477832c0-.7150682-.5796186-1.2946868-1.2938073-1.2946868-.7150681 0-1.2946867.5796186-1.2946867 1.2946868v5.1761084c0 .7141886.5796186 1.2938072 1.2946867 1.2938072.7141887 0 1.2938073-.5796186 1.2938073-1.2938072v-5.1761084zm0-28.47079523c0-.71506817-.5796186-1.29468677-1.2938073-1.29468677-.7150681 0-1.2946867.5796186-1.2946867 1.29468677v5.17610843c0 .7141886.5796186 1.2938072 1.2946867 1.2938072.7141887 0 1.2938073-.5796186 1.2938073-1.2938072V5.17698797zM10.3530964 20.7061928H5.17698797c-.71418863 0-1.29468677.5796186-1.29468677 1.2946867 0 .7133091.58049814 1.2929277 1.29468677 1.2929277h5.17610843c.7141886 0 1.2946868-.5796186 1.2946868-1.2929277 0-.7150681-.5804982-1.2946867-1.2946868-1.2946867zm31.0592892 9.0592891H29.7654819v11.6469037C29.7654819 42.8425219 28.6071243 44 27.176988 44H16.8238916c-1.4301364 0-2.588494-1.1574781-2.588494-2.5876144V29.7654819H2.58849398C1.15835765 29.7654819 0 28.6062448 0 27.1761084V16.8238916c0-1.4301364 1.15835765-2.588494 2.58849398-2.588494H14.2353976V2.58849398C14.2353976 1.15835765 15.3937552 0 16.8238916 0H27.176988c1.4301363 0 2.5884939 1.15835765 2.5884939 2.58849398V14.2353976h11.6469037c1.4301363 0 2.5884939 1.1583576 2.5884939 2.588494v10.3522168c0 1.4301364-1.1583576 2.5893735-2.5884939 2.5893735z"></path></svg>