<svg xmlns="http://www.w3.org/2000/svg" viewBox="0 0 39.68 59.53" width="40" height="60"><defs><style>.cls-1{fill:#fff}</style></defs><g id="Layer_2" data-name="Layer 2"><g id="Layer_1-2" data-name="Layer 1"><path class="cls-1" d="M39.69 0H0v59.53h39.69V0z"/><path d="M39.11.64v58.25H.58V.64h38.53"/><path class="cls-1" d="M2.52 2.71H36.9v9.66H2.52zM2.5 14.47h34.4v35.51H2.5zM2.51 56.79v-4.71h6.9v1.1H5.28v.67h3.5v1.1h-3.5v.74h4.29v1.1H2.51zM15.44 53.45a.52.52 0 0 0-.4-.32 2.53 2.53 0 0 0-.72-.09c-.61 0-.88.1-.88.28 0 .69 4.87.26 4.87 2 0 1.09-1.64 1.63-4 1.63s-3.7-.73-3.75-1.58h2.65a.69.69 0 0 0 .46.37 2.52 2.52 0 0 0 .79.12c.69 0 1.16-.12 1.16-.35 0-.71-4.88-.22-4.88-2 0-1 1.56-1.5 3.67-1.5 2.35 0 3.43.66 3.63 1.49zM22.46 54.12h1.09c.86 0 1.32-.12 1.32-.45s-.47-.49-1.11-.49h-1.3zm0 1v1.64h-2.77v-4.68h4c2.82 0 3.75.43 3.75 1.34 0 .55-.44 1-1.43 1.16.9.18 1.44.29 1.44 1.24 0 .61 0 .83.29.83v.14h-2.81a1.83 1.83 0 0 1-.14-.82c0-.62-.19-.82-1.48-.82zM31.91 53.18V54h1.16c.55 0 1-.14 1-.41s-.54-.38-1.13-.38zm0 1.64v.87h1.21c.69 0 1.21-.08 1.21-.43s-.65-.44-1.53-.44zm-2.77 2v-4.74h4c1.9 0 3.42.25 3.42 1.18 0 .49-.57.84-1.1 1 .91.13 1.4.57 1.4 1.08 0 1.05-1.44 1.42-3.64 1.42z"/><path d="M21.88 41.26H20.4v.81h1.48v1.44h.84v-1.44h1.48v-.81h-1.48v-1.44h-.84zm-2.36-.37c0-2.86-1.54-4.56-4.08-4.56-3.45 0-4.29 2.35-4.29 4.56 0 2.7 1.35 4.56 4.18 4.56s4.19-1.86 4.19-4.56M5.11 22.68l20.83-6.22 2.06 6.6-10.41 3.11.85 2.7L28.09 26l2.08 6.59-9.64 2.88.9 2.84 10.78-3.22 2.09 6.59L13.13 48l-8-25.32m.77 16.69a7 7 0 0 0 2.59-1.25V45h2v-8.63H8.54A6.88 6.88 0 0 1 5.9 37.7v1.67"/><path d="M13 40.81c0-2.89 1.16-3.56 2.47-3.56 1.47 0 2.3 1.11 2.3 3.64 0 1.58-.44 3.52-2.32 3.51s-2.52-1.48-2.45-3.59M3.48 10.28V4.8h2.15v.84H4.31V7h1.22v.84H4.31v1.6h1.36v.84zM5.89 4.8h.86l.61 4 .69-4h.81l-1 5.48h-1zM9.24 10.28V4.8h2.14v.84h-1.32V7h1.22v.84h-1.22v1.6h1.37v.84zM12.77 10.28h-.83V4.8h1.53a.77.77 0 0 1 .67.37 1.94 1.94 0 0 1 .25 1.07 2.12 2.12 0 0 1-.17.88.77.77 0 0 1-.56.46h.18a.6.6 0 0 1 .24.14.83.83 0 0 1 .2.31 1.5 1.5 0 0 1 .09.58v.87a3.48 3.48 0 0 0 0 .47 1.23 1.23 0 0 0 0 .29h-.8a1.54 1.54 0 0 1-.09-.52v-1a1.45 1.45 0 0 0-.06-.39.52.52 0 0 0-.17-.26A.53.53 0 0 0 13 8h-.21zm0-3.11h.36a.28.28 0 0 0 .2-.08.55.55 0 0 0 .14-.19 1.1 1.1 0 0 0 .06-.26 1.32 1.32 0 0 0 0-.27 1 1 0 0 0-.11-.56.36.36 0 0 0-.31-.17h-.36zM15.63 8.38l-1-3.58h.9l.59 2.32.63-2.32h.84l-1.1 3.58v1.9h-.83zM19.26 10.37a1.18 1.18 0 0 1-.79-.24 1.37 1.37 0 0 1-.4-.63 4 4 0 0 1-.15-.91v-1-1a4 4 0 0 1 .15-.91 1.37 1.37 0 0 1 .4-.63 1.18 1.18 0 0 1 .79-.24A1.16 1.16 0 0 1 20 5a1.29 1.29 0 0 1 .4.63 3.15 3.15 0 0 1 .15.91v2a3.15 3.15 0 0 1-.15.91 1.29 1.29 0 0 1-.4.63 1.16 1.16 0 0 1-.74.29zm0-.82a.37.37 0 0 0 .27-.11.75.75 0 0 0 .16-.37 3.22 3.22 0 0 0 .07-.62v-.91-.91a3.22 3.22 0 0 0-.07-.63.75.75 0 0 0-.16-.36.34.34 0 0 0-.27-.12.35.35 0 0 0-.28.12.86.86 0 0 0-.16.36 4.29 4.29 0 0 0-.07.62v1.82a4.29 4.29 0 0 0 .07.62.85.85 0 0 0 .16.37.38.38 0 0 0 .28.12zM21.27 10.28V4.8h1.11l1.05 3.8V4.8h.77v5.48h-1.08l-1.07-4v4zM24.9 10.28V4.8h2.15v.84h-1.33V7h1.22v.84h-1.22v1.6h1.37v.84zM28.76 5.67a3.44 3.44 0 0 0 .4-.37 2.27 2.27 0 0 0 .34-.48h.72v5.46h-.82v-4.2a3.26 3.26 0 0 1-.31.33l-.33.28zM32.12 4.75a1.09 1.09 0 0 1 .57.14 1 1 0 0 1 .33.47 3.47 3.47 0 0 1 .16.86V8.7a4.31 4.31 0 0 1-.13.89 1.24 1.24 0 0 1-.34.56.84.84 0 0 1-.6.2.81.81 0 0 1-.6-.2 1.24 1.24 0 0 1-.34-.56 4.31 4.31 0 0 1-.13-.89V7.54 6.22a3.47 3.47 0 0 1 .16-.86.89.89 0 0 1 .33-.47 1 1 0 0 1 .59-.14zm0 .8a.24.24 0 0 0-.19.08.64.64 0 0 0-.1.29v2.61a4.39 4.39 0 0 0 0 .61.64.64 0 0 0 .1.3.19.19 0 0 0 .18.08.21.21 0 0 0 .18-.08.64.64 0 0 0 .1-.3c0-.14 0-.35.05-.61v-2-.61a.64.64 0 0 0-.1-.29.26.26 0 0 0-.22-.08zM34.39 5.87H35v1.49h.92v.84H35v1.5h-.61V8.2h-.93v-.84h.93z"/></g></g></svg>