<svg viewBox="0 0 17 18" xmlns="http://www.w3.org/2000/svg"><g fill-rule="nonzero"><path d="M5.14857143 10.8964286c-.42095238 0-.74476191-.3214286-.74476191-.7071429 0-.38571427.32380953-.70714284.74476191-.70714284.38857143 0 .7447619.32142857.7447619.70714284-.03238095.3857143-.35619047.7071429-.7447619.7071429M3.59428571 9.38571429c-.42095238 0-.7447619-.32142858-.7447619-.70714286 0-.38571429.32380952-.70714286.7447619-.70714286.42095239 0 .74476191.32142857.74476191.70714286-.03238095.38571428-.35619048.70714286-.74476191.70714286m0 3.05357141c-.42095238 0-.7447619-.3214286-.7447619-.7071428 0-.3857143.32380952-.7071429.7447619-.7071429.42095239 0 .74476191.3214286.74476191.7071429 0 .3857142-.35619048.7071428-.74476191.7071428M2.04 10.8964286c-.42095238 0-.7447619-.3214286-.7447619-.7071429 0-.38571427.32380952-.70714284.7447619-.70714284.42095238 0 .7447619.32142857.7447619.70714284-.03238095.3857143-.35619047.7071429-.7447619.7071429m1.55428571-8.03571431c.90666667 0 1.61904762.70714285 1.61904762 1.60714285 0 .86785715-.71238095 1.60714286-1.61904762 1.60714286-.90666666 0-1.61904761-.70714286-1.61904761-1.60714286 0-.9.71238095-1.60714285 1.61904761-1.60714285M7.02666667 0H3.95047619C1.81333333 0 .0647619 1.70357143.0647619 3.79285714V14.175c0 2.0892857 1.74857143 3.825 3.88571429 3.825h3.07619048c.0647619 0 .09714285-.0321429.09714285-.0964286V.09642857C7.12380952.03214286 7.05904762 0 7.02666667 0M14.7980952 5.625c-.4209523 0-.7447619-.32142857-.7447619-.70714286 0-.38571428.3238096-.70714285.7447619-.70714285.3885715 0 .7447619.32142857.7447619.70714285 0 .38571429-.3238095.70714286-.7447619.70714286m-1.5542857 6.5892857c-.9066666 0-1.6190476-.7071428-1.6190476-1.6071428C11.6247619 9.73928571 12.3371429 9 13.2438095 9c.9066667 0 1.6190476.70714286 1.6190476 1.6071429 0 .9-.7123809 1.6071428-1.6190476 1.6071428m-2.2666666-7.29642856c0-.38571428.3238095-.70714285.7447619-.70714285.4209523 0 .7447619.32142857.7447619.70714285 0 .38571429-.3238096.70714286-.7447619.70714286-.4209524 0-.7447619-.32142857-.7447619-.70714286m2.2666666.80357143c.4209524 0 .7447619.32142857.7447619.70714286 0 .38571428-.3238095.70714286-.7447619.70714286s-.7447619-.32142858-.7447619-.70714286c.032381-.38571429.3561905-.70714286.7447619-.70714286m0-3.05357143c.4209524 0 .7447619.32142857.7447619.70714286s-.3238095.70714286-.7447619.70714286-.7447619-.32142857-.7447619-.70714286c.032381-.38571429.3561905-.70714286.7447619-.70714286M12.92 0H9.84380952c-.0647619 0-.12952381.03214286-.12952381.09642857V17.9035714c0 .0642857.03238096.0964286.09714286.0964286H12.887619c2.1371429 0 3.8857143-1.7035714 3.8857143-3.825V3.79285714C16.7733333 1.70357143 15.0571429 0 12.92 0"></path></g></svg>